<?xml version="1.0" encoding="UTF-8" standalone="no"?>
<!DOCTYPE svg PUBLIC "-//W3C//DTD SVG 1.1//EN"
 "http://www.w3.org/Graphics/SVG/1.1/DTD/svg11.dtd">
<!-- Generated by graphviz version 2.36.0 (20140111.2315)
 -->
<!-- Title: G Pages: 1 -->
<svg width="306pt" height="1776pt"
 viewBox="0.00 0.00 306.00 1776.00" xmlns="http://www.w3.org/2000/svg" xmlns:xlink="http://www.w3.org/1999/xlink">
<g id="graph0" class="graph" transform="scale(1 1) rotate(0) translate(4 1772)">
<title>G</title>
<polygon fill="white" stroke="none" points="-4,4 -4,-1772 302,-1772 302,4 -4,4"/>
<g id="clust1" class="cluster"><title>cluster_Global</title>
<path fill="none" stroke="gray" d="M20,-8C20,-8 278,-8 278,-8 284,-8 290,-14 290,-20 290,-20 290,-1748 290,-1748 290,-1754 284,-1760 278,-1760 278,-1760 20,-1760 20,-1760 14,-1760 8,-1754 8,-1748 8,-1748 8,-20 8,-20 8,-14 14,-8 20,-8"/>
<text text-anchor="middle" x="149" y="-1747.2" font-family="Times,serif" font-size="11.00" fill="gray">Global</text>
</g>
<g id="clust2" class="cluster"><title>cluster_\Extensions</title>
<path fill="none" stroke="gray" d="M185,-1174C185,-1174 239,-1174 239,-1174 245,-1174 251,-1180 251,-1186 251,-1186 251,-1720 251,-1720 251,-1726 245,-1732 239,-1732 239,-1732 185,-1732 185,-1732 179,-1732 173,-1726 173,-1720 173,-1720 173,-1186 173,-1186 173,-1180 179,-1174 185,-1174"/>
<text text-anchor="middle" x="212" y="-1719.2" font-family="Times,serif" font-size="11.00" fill="gray">Extensions</text>
</g>
<g id="clust3" class="cluster"><title>cluster_\Model</title>
<path fill="none" stroke="gray" d="M28,-310C28,-310 270,-310 270,-310 276,-310 282,-316 282,-322 282,-322 282,-1154 282,-1154 282,-1160 276,-1166 270,-1166 270,-1166 28,-1166 28,-1166 22,-1166 16,-1160 16,-1154 16,-1154 16,-322 16,-322 16,-316 22,-310 28,-310"/>
<text text-anchor="middle" x="149" y="-1153.2" font-family="Times,serif" font-size="11.00" fill="gray">Model</text>
</g>
<g id="clust4" class="cluster"><title>cluster_\Model\PagSeguro</title>
<path fill="none" stroke="gray" d="M162,-958C162,-958 262,-958 262,-958 268,-958 274,-964 274,-970 274,-970 274,-1126 274,-1126 274,-1132 268,-1138 262,-1138 262,-1138 162,-1138 162,-1138 156,-1138 150,-1132 150,-1126 150,-1126 150,-970 150,-970 150,-964 156,-958 162,-958"/>
<text text-anchor="middle" x="212" y="-1125.2" font-family="Times,serif" font-size="11.00" fill="gray">PagSeguro</text>
</g>
<g id="clust5" class="cluster"><title>cluster_\Lib</title>
<path fill="none" stroke="gray" d="M185,-176C185,-176 239,-176 239,-176 245,-176 251,-182 251,-188 251,-188 251,-290 251,-290 251,-296 245,-302 239,-302 239,-302 185,-302 185,-302 179,-302 173,-296 173,-290 173,-290 173,-188 173,-188 173,-182 179,-176 185,-176"/>
<text text-anchor="middle" x="212" y="-289.2" font-family="Times,serif" font-size="11.00" fill="gray">Lib</text>
</g>
<g id="clust6" class="cluster"><title>cluster_\View</title>
<path fill="none" stroke="gray" d="M189,-96C189,-96 235,-96 235,-96 241,-96 247,-102 247,-108 247,-108 247,-156 247,-156 247,-162 241,-168 235,-168 235,-168 189,-168 189,-168 183,-168 177,-162 177,-156 177,-156 177,-108 177,-108 177,-102 183,-96 189,-96"/>
<text text-anchor="middle" x="212" y="-155.2" font-family="Times,serif" font-size="11.00" fill="gray">View</text>
</g>
<g id="clust7" class="cluster"><title>cluster_\Controller</title>
<path fill="none" stroke="gray" d="M185,-16C185,-16 239,-16 239,-16 245,-16 251,-22 251,-28 251,-28 251,-76 251,-76 251,-82 245,-88 239,-88 239,-88 185,-88 185,-88 179,-88 173,-82 173,-76 173,-76 173,-28 173,-28 173,-22 179,-16 185,-16"/>
<text text-anchor="middle" x="212" y="-75.2" font-family="Times,serif" font-size="11.00" fill="gray">Controller</text>
</g>
<!-- \\Extensions\\Files -->
<g id="node1" class="node"><title>\\Extensions\\Files</title>
<polygon fill="none" stroke="black" points="239,-1704 185,-1704 185,-1668 239,-1668 239,-1704"/>
<text text-anchor="middle" x="212" y="-1683.2" font-family="Times,serif" font-size="11.00">Files</text>
</g>
<!-- \\Extensions\\Config -->
<g id="node2" class="node"><title>\\Extensions\\Config</title>
<polygon fill="none" stroke="black" points="239,-1650 185,-1650 185,-1614 239,-1614 239,-1650"/>
<text text-anchor="middle" x="212" y="-1629.2" font-family="Times,serif" font-size="11.00">Config</text>
</g>
<!-- \\Extensions\\Strings -->
<g id="node3" class="node"><title>\\Extensions\\Strings</title>
<polygon fill="none" stroke="black" points="239,-1596 185,-1596 185,-1560 239,-1560 239,-1596"/>
<text text-anchor="middle" x="212" y="-1575.2" font-family="Times,serif" font-size="11.00">Strings</text>
</g>
<!-- \\Extensions\\Messages -->
<g id="node4" class="node"><title>\\Extensions\\Messages</title>
<polygon fill="none" stroke="black" points="242.5,-1542 181.5,-1542 181.5,-1506 242.5,-1506 242.5,-1542"/>
<text text-anchor="middle" x="212" y="-1521.2" font-family="Times,serif" font-size="11.00">Messages</text>
</g>
<!-- \\Extensions\\Geo -->
<g id="node5" class="node"><title>\\Extensions\\Geo</title>
<polygon fill="none" stroke="black" points="239,-1488 185,-1488 185,-1452 239,-1452 239,-1488"/>
<text text-anchor="middle" x="212" y="-1467.2" font-family="Times,serif" font-size="11.00">Geo</text>
</g>
<!-- \\Extensions\\CEP -->
<g id="node6" class="node"><title>\\Extensions\\CEP</title>
<polygon fill="none" stroke="black" points="239,-1434 185,-1434 185,-1398 239,-1398 239,-1434"/>
<text text-anchor="middle" x="212" y="-1413.2" font-family="Times,serif" font-size="11.00">CEP</text>
</g>
<!-- \\Extensions\\Gravatar -->
<g id="node7" class="node"><title>\\Extensions\\Gravatar</title>
<polygon fill="none" stroke="black" points="240,-1380 184,-1380 184,-1344 240,-1344 240,-1380"/>
<text text-anchor="middle" x="212" y="-1359.2" font-family="Times,serif" font-size="11.00">Gravatar</text>
</g>
<!-- \\Extensions\\Mailer -->
<g id="node8" class="node"><title>\\Extensions\\Mailer</title>
<polygon fill="none" stroke="black" points="239,-1326 185,-1326 185,-1290 239,-1290 239,-1326"/>
<text text-anchor="middle" x="212" y="-1305.2" font-family="Times,serif" font-size="11.00">Mailer</text>
</g>
<!-- \\Extensions\\Weather -->
<g id="node9" class="node"><title>\\Extensions\\Weather</title>
<polygon fill="none" stroke="black" points="239.5,-1272 184.5,-1272 184.5,-1236 239.5,-1236 239.5,-1272"/>
<text text-anchor="middle" x="212" y="-1251.2" font-family="Times,serif" font-size="11.00">Weather</text>
</g>
<!-- \\Extensions\\Security -->
<g id="node10" class="node"><title>\\Extensions\\Security</title>
<polygon fill="none" stroke="black" points="239,-1218 185,-1218 185,-1182 239,-1182 239,-1218"/>
<text text-anchor="middle" x="212" y="-1197.2" font-family="Times,serif" font-size="11.00">Security</text>
</g>
<!-- \\Model\\PagSeguro\\PagSeguroOrder -->
<g id="node11" class="node"><title>\\Model\\PagSeguro\\PagSeguroOrder</title>
<polygon fill="none" stroke="black" points="257,-1110 167,-1110 167,-1074 257,-1074 257,-1110"/>
<text text-anchor="middle" x="212" y="-1089.2" font-family="Times,serif" font-size="11.00">PagSeguroOrder</text>
</g>
<!-- \\Model\\Base -->
<g id="node18" class="node"><title>\\Model\\Base</title>
<polygon fill="none" stroke="black" points="86,-705 24,-705 24,-669 86,-669 86,-705"/>
<text text-anchor="start" x="32" y="-690.2" font-family="Times,serif" font-size="11.00">«abstract»</text>
<text text-anchor="start" x="43.5" y="-678.2" font-family="Times,serif" font-size="11.00">Base</text>
</g>
<!-- \\Model\\PagSeguro\\PagSeguroOrder&#45;&gt;\\Model\\Base -->
<g id="edge5" class="edge"><title>\\Model\\PagSeguro\\PagSeguroOrder&#45;&gt;\\Model\\Base</title>
<path fill="none" stroke="black" d="M166.96,-1078.45C160.58,-1074.91 154.62,-1070.5 150,-1065 61.6206,-959.841 54.3126,-783.569 55.0634,-715.25"/>
<polygon fill="none" stroke="black" points="58.5629,-715.3 55.2419,-705.239 51.564,-715.175 58.5629,-715.3"/>
</g>
<!-- \\Model\\PagSeguro\\PagSeguroCustomer -->
<g id="node12" class="node"><title>\\Model\\PagSeguro\\PagSeguroCustomer</title>
<polygon fill="none" stroke="black" points="265.5,-1056 158.5,-1056 158.5,-1020 265.5,-1020 265.5,-1056"/>
<text text-anchor="middle" x="212" y="-1035.2" font-family="Times,serif" font-size="11.00">PagSeguroCustomer</text>
</g>
<!-- \\Model\\PagSeguro\\PagSeguroCustomer&#45;&gt;\\Model\\Base -->
<g id="edge6" class="edge"><title>\\Model\\PagSeguro\\PagSeguroCustomer&#45;&gt;\\Model\\Base</title>
<path fill="none" stroke="black" d="M159.933,-1019.82C156.276,-1017.24 152.896,-1014.31 150,-1011 73.4645,-923.425 59.1053,-776.762 56.5144,-715.373"/>
<polygon fill="none" stroke="black" points="60.0086,-715.142 56.1641,-705.269 53.0128,-715.384 60.0086,-715.142"/>
</g>
<!-- \\Model\\PagSeguro\\PagSeguroConfig -->
<g id="node13" class="node"><title>\\Model\\PagSeguro\\PagSeguroConfig</title>
<polygon fill="none" stroke="black" points="259,-1002 165,-1002 165,-966 259,-966 259,-1002"/>
<text text-anchor="middle" x="212" y="-981.2" font-family="Times,serif" font-size="11.00">PagSeguroConfig</text>
</g>
<!-- \\Model\\PagSeguro\\PagSeguroConfig&#45;&gt;\\Model\\Base -->
<g id="edge8" class="edge"><title>\\Model\\PagSeguro\\PagSeguroConfig&#45;&gt;\\Model\\Base</title>
<path fill="none" stroke="black" d="M164.959,-972.62C159.441,-969.819 154.263,-966.335 150,-962 81.3469,-892.186 62.7626,-770.189 57.7886,-715.243"/>
<polygon fill="none" stroke="black" points="61.2694,-714.864 56.9645,-705.183 54.2927,-715.436 61.2694,-714.864"/>
</g>
<!-- \\Model\\Banners -->
<g id="node14" class="node"><title>\\Model\\Banners</title>
<polygon fill="none" stroke="black" points="239,-948 185,-948 185,-912 239,-912 239,-948"/>
<text text-anchor="middle" x="212" y="-927.2" font-family="Times,serif" font-size="11.00">Banners</text>
</g>
<!-- \\Model\\Banners&#45;&gt;\\Model\\Base -->
<g id="edge1" class="edge"><title>\\Model\\Banners&#45;&gt;\\Model\\Base</title>
<path fill="none" stroke="black" d="M184.72,-923.157C172.882,-918.966 159.47,-912.529 150,-903 96.6226,-849.289 71.2846,-760.28 61.3486,-715.13"/>
<polygon fill="none" stroke="black" points="64.7343,-714.222 59.2494,-705.157 57.8844,-715.664 64.7343,-714.222"/>
</g>
<!-- \\Model\\Blog -->
<g id="node15" class="node"><title>\\Model\\Blog</title>
<polygon fill="none" stroke="black" points="239,-894 185,-894 185,-858 239,-858 239,-894"/>
<text text-anchor="middle" x="212" y="-873.2" font-family="Times,serif" font-size="11.00">Blog</text>
</g>
<!-- \\Model\\Blog&#45;&gt;\\Model\\Base -->
<g id="edge2" class="edge"><title>\\Model\\Blog&#45;&gt;\\Model\\Base</title>
<path fill="none" stroke="black" d="M184.895,-868.541C173.234,-864.242 159.917,-857.89 150,-849 107.91,-811.267 79.6377,-750.078 65.8257,-714.689"/>
<polygon fill="none" stroke="black" points="68.9747,-713.121 62.1588,-705.01 62.4288,-715.601 68.9747,-713.121"/>
</g>
<!-- \\Model\\Users -->
<g id="node16" class="node"><title>\\Model\\Users</title>
<polygon fill="none" stroke="black" points="239,-840 185,-840 185,-804 239,-804 239,-840"/>
<text text-anchor="middle" x="212" y="-819.2" font-family="Times,serif" font-size="11.00">Users</text>
</g>
<!-- \\Model\\Users&#45;&gt;\\Model\\Base -->
<g id="edge4" class="edge"><title>\\Model\\Users&#45;&gt;\\Model\\Base</title>
<path fill="none" stroke="black" d="M184.719,-813.292C173.418,-808.831 160.438,-802.701 150,-795 119.003,-772.13 91.0877,-737.373 73.8823,-713.5"/>
<polygon fill="none" stroke="black" points="76.673,-711.385 68.0421,-705.24 70.9572,-715.426 76.673,-711.385"/>
</g>
<!-- \\Model\\Mailing -->
<g id="node17" class="node"><title>\\Model\\Mailing</title>
<polygon fill="none" stroke="black" points="239,-786 185,-786 185,-750 239,-750 239,-786"/>
<text text-anchor="middle" x="212" y="-765.2" font-family="Times,serif" font-size="11.00">Mailing</text>
</g>
<!-- \\Model\\Mailing&#45;&gt;\\Model\\Base -->
<g id="edge7" class="edge"><title>\\Model\\Mailing&#45;&gt;\\Model\\Base</title>
<path fill="none" stroke="black" d="M184.897,-757.161C173.99,-752.448 161.26,-746.707 150,-741 131.444,-731.596 111.388,-720.246 94.5871,-710.383"/>
<polygon fill="none" stroke="black" points="96.0071,-707.157 85.6181,-705.079 92.4438,-713.182 96.0071,-707.157"/>
</g>
<!-- \\Model\\BlogViews -->
<g id="node19" class="node"><title>\\Model\\BlogViews</title>
<polygon fill="none" stroke="black" points="245.5,-732 178.5,-732 178.5,-696 245.5,-696 245.5,-732"/>
<text text-anchor="middle" x="212" y="-711.2" font-family="Times,serif" font-size="11.00">BlogViews</text>
</g>
<!-- \\Model\\BlogViews&#45;&gt;\\Model\\Base -->
<g id="edge9" class="edge"><title>\\Model\\BlogViews&#45;&gt;\\Model\\Base</title>
<path fill="none" stroke="black" d="M178.128,-708.274C154.229,-704.111 121.739,-698.451 96.2785,-694.016"/>
<polygon fill="none" stroke="black" points="96.6482,-690.528 86.1959,-692.26 95.4469,-697.424 96.6482,-690.528"/>
</g>
<!-- \\Model\\Comments -->
<g id="node20" class="node"><title>\\Model\\Comments</title>
<polygon fill="none" stroke="black" points="244,-678 180,-678 180,-642 244,-642 244,-678"/>
<text text-anchor="middle" x="212" y="-657.2" font-family="Times,serif" font-size="11.00">Comments</text>
</g>
<!-- \\Model\\Comments&#45;&gt;\\Model\\Base -->
<g id="edge10" class="edge"><title>\\Model\\Comments&#45;&gt;\\Model\\Base</title>
<path fill="none" stroke="black" d="M179.633,-665.464C155.503,-669.667 121.99,-675.505 95.9421,-680.042"/>
<polygon fill="none" stroke="black" points="95.2542,-676.609 86.0033,-681.774 96.4556,-683.506 95.2542,-676.609"/>
</g>
<!-- \\Model\\Tags -->
<g id="node21" class="node"><title>\\Model\\Tags</title>
<polygon fill="none" stroke="black" points="239,-624 185,-624 185,-588 239,-588 239,-624"/>
<text text-anchor="middle" x="212" y="-603.2" font-family="Times,serif" font-size="11.00">Tags</text>
</g>
<!-- \\Model\\Tags&#45;&gt;\\Model\\Base -->
<g id="edge11" class="edge"><title>\\Model\\Tags&#45;&gt;\\Model\\Base</title>
<path fill="none" stroke="black" d="M184.897,-616.839C173.99,-621.552 161.26,-627.293 150,-633 131.444,-642.404 111.388,-653.754 94.5871,-663.617"/>
<polygon fill="none" stroke="black" points="92.4438,-660.818 85.6181,-668.921 96.0071,-666.843 92.4438,-660.818"/>
</g>
<!-- \\Model\\Categories -->
<g id="node22" class="node"><title>\\Model\\Categories</title>
<polygon fill="none" stroke="black" points="244.5,-570 179.5,-570 179.5,-534 244.5,-534 244.5,-570"/>
<text text-anchor="middle" x="212" y="-549.2" font-family="Times,serif" font-size="11.00">Categories</text>
</g>
<!-- \\Model\\Categories&#45;&gt;\\Model\\Base -->
<g id="edge12" class="edge"><title>\\Model\\Categories&#45;&gt;\\Model\\Base</title>
<path fill="none" stroke="black" d="M179.472,-562.854C169.536,-567.066 158.853,-572.468 150,-579 119.003,-601.87 91.0877,-636.627 73.8823,-660.5"/>
<polygon fill="none" stroke="black" points="70.9572,-658.574 68.0421,-668.76 76.673,-662.615 70.9572,-658.574"/>
</g>
<!-- \\Model\\Administrators -->
<g id="node23" class="node"><title>\\Model\\Administrators</title>
<polygon fill="none" stroke="black" points="253.5,-516 170.5,-516 170.5,-480 253.5,-480 253.5,-516"/>
<text text-anchor="middle" x="212" y="-495.2" font-family="Times,serif" font-size="11.00">Administrators</text>
</g>
<!-- \\Model\\Administrators&#45;&gt;\\Model\\Base -->
<g id="edge13" class="edge"><title>\\Model\\Administrators&#45;&gt;\\Model\\Base</title>
<path fill="none" stroke="black" d="M170.43,-511.634C163.124,-515.246 155.95,-519.666 150,-525 107.91,-562.733 79.6377,-623.922 65.8257,-659.311"/>
<polygon fill="none" stroke="black" points="62.4288,-658.399 62.1588,-668.99 68.9747,-660.879 62.4288,-658.399"/>
</g>
<!-- \\Model\\Messages -->
<g id="node24" class="node"><title>\\Model\\Messages</title>
<polygon fill="none" stroke="black" points="242.5,-462 181.5,-462 181.5,-426 242.5,-426 242.5,-462"/>
<text text-anchor="middle" x="212" y="-441.2" font-family="Times,serif" font-size="11.00">Messages</text>
</g>
<!-- \\Model\\Messages&#45;&gt;\\Model\\Base -->
<g id="edge14" class="edge"><title>\\Model\\Messages&#45;&gt;\\Model\\Base</title>
<path fill="none" stroke="black" d="M181.315,-452.097C170.374,-456.283 158.572,-462.375 150,-471 96.6226,-524.711 71.2846,-613.72 61.3486,-658.87"/>
<polygon fill="none" stroke="black" points="57.8844,-658.336 59.2494,-668.843 64.7343,-659.778 57.8844,-658.336"/>
</g>
<!-- \\Model\\Tickets -->
<g id="node25" class="node"><title>\\Model\\Tickets</title>
<polygon fill="none" stroke="black" points="239,-408 185,-408 185,-372 239,-372 239,-408"/>
<text text-anchor="middle" x="212" y="-387.2" font-family="Times,serif" font-size="11.00">Tickets</text>
</g>
<!-- \\Model\\Tickets&#45;&gt;\\Model\\Base -->
<g id="edge15" class="edge"><title>\\Model\\Tickets&#45;&gt;\\Model\\Base</title>
<path fill="none" stroke="black" d="M184.699,-396.423C172.713,-400.539 159.182,-407.035 150,-417 85.1782,-487.345 64.6813,-604.796 58.509,-658.56"/>
<polygon fill="none" stroke="black" points="55.0047,-658.415 57.4274,-668.729 61.9655,-659.155 55.0047,-658.415"/>
</g>
<!-- \\Model\\TicketResponses -->
<g id="node26" class="node"><title>\\Model\\TicketResponses</title>
<polygon fill="none" stroke="black" points="258,-354 166,-354 166,-318 258,-318 258,-354"/>
<text text-anchor="middle" x="212" y="-333.2" font-family="Times,serif" font-size="11.00">TicketResponses</text>
</g>
<!-- \\Model\\TicketResponses&#45;&gt;\\Model\\Base -->
<g id="edge16" class="edge"><title>\\Model\\TicketResponses&#45;&gt;\\Model\\Base</title>
<path fill="none" stroke="black" d="M165.907,-350.393C159.969,-353.79 154.42,-357.942 150,-363 73.4645,-450.575 59.1053,-597.238 56.5144,-658.627"/>
<polygon fill="none" stroke="black" points="53.0128,-658.616 56.1641,-668.731 60.0086,-658.858 53.0128,-658.616"/>
</g>
<!-- \\Lib\\Connector -->
<g id="node27" class="node"><title>\\Lib\\Connector</title>
<polygon fill="none" stroke="black" points="243,-274 181,-274 181,-238 243,-238 243,-274"/>
<text text-anchor="middle" x="212" y="-253.2" font-family="Times,serif" font-size="11.00">Connector</text>
</g>
<!-- \\Lib\\Connector&#45;&gt;\\Model\\Base -->
<g id="edge3" class="edge"><title>\\Lib\\Connector&#45;&gt;\\Model\\Base</title>
<path fill="none" stroke="black" d="M181.639,-274.04C170.208,-282.44 157.967,-293.378 150,-306 76.6289,-422.244 60.5217,-591.924 56.99,-658.599"/>
<polygon fill="none" stroke="black" points="53.4864,-658.595 56.5094,-668.75 60.4785,-658.927 53.4864,-658.595"/>
</g>
<!-- \\Lib\\Data -->
<g id="node28" class="node"><title>\\Lib\\Data</title>
<polygon fill="none" stroke="black" points="243,-220 181,-220 181,-184 243,-184 243,-220"/>
<text text-anchor="start" x="189" y="-205.2" font-family="Times,serif" font-size="11.00">«abstract»</text>
<text text-anchor="start" x="201" y="-193.2" font-family="Times,serif" font-size="11.00">Data</text>
</g>
<!-- \\View\\View -->
<g id="node29" class="node"><title>\\View\\View</title>
<polygon fill="none" stroke="black" points="239,-140 185,-140 185,-104 239,-104 239,-140"/>
<text text-anchor="middle" x="212" y="-119.2" font-family="Times,serif" font-size="11.00">View</text>
</g>
<!-- \\Controller\\Controller -->
<g id="node30" class="node"><title>\\Controller\\Controller</title>
<polygon fill="none" stroke="black" points="243,-60 181,-60 181,-24 243,-24 243,-60"/>
<text text-anchor="middle" x="212" y="-39.2" font-family="Times,serif" font-size="11.00">Controller</text>
</g>
</g>
</svg>
