<?xml version="1.0" encoding="UTF-8" standalone="no"?>
<!DOCTYPE svg PUBLIC "-//W3C//DTD SVG 1.1//EN"
 "http://www.w3.org/Graphics/SVG/1.1/DTD/svg11.dtd">
<!-- Generated by graphviz version 2.36.0 (20140111.2315)
 -->
<!-- Title: G Pages: 1 -->
<svg width="352pt" height="1938pt"
 viewBox="0.00 0.00 352.00 1938.00" xmlns="http://www.w3.org/2000/svg" xmlns:xlink="http://www.w3.org/1999/xlink">
<g id="graph0" class="graph" transform="scale(1 1) rotate(0) translate(4 1934)">
<title>G</title>
<polygon fill="white" stroke="none" points="-4,4 -4,-1934 348,-1934 348,4 -4,4"/>
<g id="clust1" class="cluster"><title>cluster_Global</title>
<path fill="none" stroke="gray" d="M20,-8C20,-8 324,-8 324,-8 330,-8 336,-14 336,-20 336,-20 336,-1910 336,-1910 336,-1916 330,-1922 324,-1922 324,-1922 20,-1922 20,-1922 14,-1922 8,-1916 8,-1910 8,-1910 8,-20 8,-20 8,-14 14,-8 20,-8"/>
<text text-anchor="middle" x="172" y="-1909.2" font-family="Times,serif" font-size="11.00" fill="gray">Global</text>
</g>
<g id="clust2" class="cluster"><title>cluster_\Extensions</title>
<path fill="none" stroke="gray" d="M214,-1228C214,-1228 278,-1228 278,-1228 284,-1228 290,-1234 290,-1240 290,-1240 290,-1882 290,-1882 290,-1888 284,-1894 278,-1894 278,-1894 214,-1894 214,-1894 208,-1894 202,-1888 202,-1882 202,-1882 202,-1240 202,-1240 202,-1234 208,-1228 214,-1228"/>
<text text-anchor="middle" x="246" y="-1881.2" font-family="Times,serif" font-size="11.00" fill="gray">Extensions</text>
</g>
<g id="clust3" class="cluster"><title>cluster_\Model</title>
<path fill="none" stroke="gray" d="M28,-310C28,-310 316,-310 316,-310 322,-310 328,-316 328,-322 328,-322 328,-1208 328,-1208 328,-1214 322,-1220 316,-1220 316,-1220 28,-1220 28,-1220 22,-1220 16,-1214 16,-1208 16,-1208 16,-322 16,-322 16,-316 22,-310 28,-310"/>
<text text-anchor="middle" x="172" y="-1207.2" font-family="Times,serif" font-size="11.00" fill="gray">Model</text>
</g>
<g id="clust4" class="cluster"><title>cluster_\Model\PagSeguro</title>
<path fill="none" stroke="gray" d="M184,-1012C184,-1012 308,-1012 308,-1012 314,-1012 320,-1018 320,-1024 320,-1024 320,-1180 320,-1180 320,-1186 314,-1192 308,-1192 308,-1192 184,-1192 184,-1192 178,-1192 172,-1186 172,-1180 172,-1180 172,-1024 172,-1024 172,-1018 178,-1012 184,-1012"/>
<text text-anchor="middle" x="246" y="-1179.2" font-family="Times,serif" font-size="11.00" fill="gray">PagSeguro</text>
</g>
<g id="clust5" class="cluster"><title>cluster_\Lib</title>
<path fill="none" stroke="gray" d="M208,-176C208,-176 284,-176 284,-176 290,-176 296,-182 296,-188 296,-188 296,-290 296,-290 296,-296 290,-302 284,-302 284,-302 208,-302 208,-302 202,-302 196,-296 196,-290 196,-290 196,-188 196,-188 196,-182 202,-176 208,-176"/>
<text text-anchor="middle" x="246" y="-289.2" font-family="Times,serif" font-size="11.00" fill="gray">Lib</text>
</g>
<g id="clust6" class="cluster"><title>cluster_\View</title>
<path fill="none" stroke="gray" d="M223,-96C223,-96 269,-96 269,-96 275,-96 281,-102 281,-108 281,-108 281,-156 281,-156 281,-162 275,-168 269,-168 269,-168 223,-168 223,-168 217,-168 211,-162 211,-156 211,-156 211,-108 211,-108 211,-102 217,-96 223,-96"/>
<text text-anchor="middle" x="246" y="-155.2" font-family="Times,serif" font-size="11.00" fill="gray">View</text>
</g>
<g id="clust7" class="cluster"><title>cluster_\Controller</title>
<path fill="none" stroke="gray" d="M208,-16C208,-16 284,-16 284,-16 290,-16 296,-22 296,-28 296,-28 296,-76 296,-76 296,-82 290,-88 284,-88 284,-88 208,-88 208,-88 202,-88 196,-82 196,-76 196,-76 196,-28 196,-28 196,-22 202,-16 208,-16"/>
<text text-anchor="middle" x="246" y="-75.2" font-family="Times,serif" font-size="11.00" fill="gray">Controller</text>
</g>
<!-- \\Extensions\\Files -->
<g id="node1" class="node"><title>\\Extensions\\Files</title>
<polygon fill="none" stroke="black" points="273,-1866 219,-1866 219,-1830 273,-1830 273,-1866"/>
<text text-anchor="middle" x="246" y="-1845.2" font-family="Courier,monospace" font-size="11.00">Files</text>
</g>
<!-- \\Extensions\\Config -->
<g id="node2" class="node"><title>\\Extensions\\Config</title>
<polygon fill="none" stroke="black" points="274.5,-1812 217.5,-1812 217.5,-1776 274.5,-1776 274.5,-1812"/>
<text text-anchor="middle" x="246" y="-1791.2" font-family="Courier,monospace" font-size="11.00">Config</text>
</g>
<!-- \\Extensions\\Strings -->
<g id="node3" class="node"><title>\\Extensions\\Strings</title>
<polygon fill="none" stroke="black" points="278,-1758 214,-1758 214,-1722 278,-1722 278,-1758"/>
<text text-anchor="middle" x="246" y="-1737.2" font-family="Courier,monospace" font-size="11.00">Strings</text>
</g>
<!-- \\Extensions\\Themes -->
<g id="node4" class="node"><title>\\Extensions\\Themes</title>
<polygon fill="none" stroke="black" points="274.5,-1704 217.5,-1704 217.5,-1668 274.5,-1668 274.5,-1704"/>
<text text-anchor="middle" x="246" y="-1683.2" font-family="Courier,monospace" font-size="11.00">Themes</text>
</g>
<!-- \\Extensions\\Messages -->
<g id="node5" class="node"><title>\\Extensions\\Messages</title>
<polygon fill="none" stroke="black" points="281.5,-1650 210.5,-1650 210.5,-1614 281.5,-1614 281.5,-1650"/>
<text text-anchor="middle" x="246" y="-1629.2" font-family="Courier,monospace" font-size="11.00">Messages</text>
</g>
<!-- \\Extensions\\Geo -->
<g id="node6" class="node"><title>\\Extensions\\Geo</title>
<polygon fill="none" stroke="black" points="273,-1596 219,-1596 219,-1560 273,-1560 273,-1596"/>
<text text-anchor="middle" x="246" y="-1575.2" font-family="Courier,monospace" font-size="11.00">Geo</text>
</g>
<!-- \\Extensions\\CEP -->
<g id="node7" class="node"><title>\\Extensions\\CEP</title>
<polygon fill="none" stroke="black" points="273,-1542 219,-1542 219,-1506 273,-1506 273,-1542"/>
<text text-anchor="middle" x="246" y="-1521.2" font-family="Courier,monospace" font-size="11.00">CEP</text>
</g>
<!-- \\Extensions\\Gravatar -->
<g id="node8" class="node"><title>\\Extensions\\Gravatar</title>
<polygon fill="none" stroke="black" points="281.5,-1488 210.5,-1488 210.5,-1452 281.5,-1452 281.5,-1488"/>
<text text-anchor="middle" x="246" y="-1467.2" font-family="Courier,monospace" font-size="11.00">Gravatar</text>
</g>
<!-- \\Extensions\\Sitemaps -->
<g id="node9" class="node"><title>\\Extensions\\Sitemaps</title>
<polygon fill="none" stroke="black" points="281.5,-1434 210.5,-1434 210.5,-1398 281.5,-1398 281.5,-1434"/>
<text text-anchor="middle" x="246" y="-1413.2" font-family="Courier,monospace" font-size="11.00">Sitemaps</text>
</g>
<!-- \\Extensions\\Mailer -->
<g id="node10" class="node"><title>\\Extensions\\Mailer</title>
<polygon fill="none" stroke="black" points="274.5,-1380 217.5,-1380 217.5,-1344 274.5,-1344 274.5,-1380"/>
<text text-anchor="middle" x="246" y="-1359.2" font-family="Courier,monospace" font-size="11.00">Mailer</text>
</g>
<!-- \\Extensions\\Weather -->
<g id="node11" class="node"><title>\\Extensions\\Weather</title>
<polygon fill="none" stroke="black" points="278,-1326 214,-1326 214,-1290 278,-1290 278,-1326"/>
<text text-anchor="middle" x="246" y="-1305.2" font-family="Courier,monospace" font-size="11.00">Weather</text>
</g>
<!-- \\Extensions\\Security -->
<g id="node12" class="node"><title>\\Extensions\\Security</title>
<polygon fill="none" stroke="black" points="281.5,-1272 210.5,-1272 210.5,-1236 281.5,-1236 281.5,-1272"/>
<text text-anchor="middle" x="246" y="-1251.2" font-family="Courier,monospace" font-size="11.00">Security</text>
</g>
<!-- \\Model\\PagSeguro\\PagSeguroOrder -->
<g id="node13" class="node"><title>\\Model\\PagSeguro\\PagSeguroOrder</title>
<polygon fill="none" stroke="black" points="301.5,-1164 190.5,-1164 190.5,-1128 301.5,-1128 301.5,-1164"/>
<text text-anchor="middle" x="246" y="-1143.2" font-family="Courier,monospace" font-size="11.00">PagSeguroOrder</text>
</g>
<!-- \\Model\\Base -->
<g id="node22" class="node"><title>\\Model\\Base</title>
<polygon fill="none" stroke="black" points="108,-732 24,-732 24,-696 108,-696 108,-732"/>
<text text-anchor="start" x="32" y="-717.2" font-family="Courier,monospace" font-size="11.00">«abstract»</text>
<text text-anchor="start" x="52" y="-705.2" font-family="Courier,monospace" font-size="11.00">Base</text>
</g>
<!-- \\Model\\PagSeguro\\PagSeguroOrder&#45;&gt;\\Model\\Base -->
<g id="edge5" class="edge"><title>\\Model\\PagSeguro\\PagSeguroOrder&#45;&gt;\\Model\\Base</title>
<path fill="none" stroke="black" d="M190.244,-1132.59C183.423,-1129.06 177.075,-1124.61 172,-1119 120.716,-1062.28 82.7646,-824.907 70.9047,-742.404"/>
<polygon fill="none" stroke="black" points="74.3354,-741.668 69.4662,-732.258 67.4047,-742.651 74.3354,-741.668"/>
</g>
<!-- \\Model\\PagSeguro\\PagSeguroCustomer -->
<g id="node14" class="node"><title>\\Model\\PagSeguro\\PagSeguroCustomer</title>
<polygon fill="none" stroke="black" points="311.5,-1110 180.5,-1110 180.5,-1074 311.5,-1074 311.5,-1110"/>
<text text-anchor="middle" x="246" y="-1089.2" font-family="Courier,monospace" font-size="11.00">PagSeguroCustomer</text>
</g>
<!-- \\Model\\PagSeguro\\PagSeguroCustomer&#45;&gt;\\Model\\Base -->
<g id="edge6" class="edge"><title>\\Model\\PagSeguro\\PagSeguroCustomer&#45;&gt;\\Model\\Base</title>
<path fill="none" stroke="black" d="M182.613,-1073.86C178.74,-1071.29 175.144,-1068.35 172,-1065 84.3646,-971.607 69.6289,-807.988 67.3311,-742.388"/>
<polygon fill="none" stroke="black" points="70.8196,-741.92 67.0455,-732.02 63.8222,-742.113 70.8196,-741.92"/>
</g>
<!-- \\Model\\PagSeguro\\PagSeguroConfig -->
<g id="node15" class="node"><title>\\Model\\PagSeguro\\PagSeguroConfig</title>
<polygon fill="none" stroke="black" points="305,-1056 187,-1056 187,-1020 305,-1020 305,-1056"/>
<text text-anchor="middle" x="246" y="-1035.2" font-family="Courier,monospace" font-size="11.00">PagSeguroConfig</text>
</g>
<!-- \\Model\\PagSeguro\\PagSeguroConfig&#45;&gt;\\Model\\Base -->
<g id="edge10" class="edge"><title>\\Model\\PagSeguro\\PagSeguroConfig&#45;&gt;\\Model\\Base</title>
<path fill="none" stroke="black" d="M186.736,-1026.2C181.343,-1023.48 176.299,-1020.12 172,-1016 92.9831,-940.226 73.3962,-801.96 68.5674,-742.465"/>
<polygon fill="none" stroke="black" points="72.0447,-742.024 67.8265,-732.305 65.0632,-742.533 72.0447,-742.024"/>
</g>
<!-- \\Model\\Banners -->
<g id="node16" class="node"><title>\\Model\\Banners</title>
<polygon fill="none" stroke="black" points="278,-1002 214,-1002 214,-966 278,-966 278,-1002"/>
<text text-anchor="middle" x="246" y="-981.2" font-family="Courier,monospace" font-size="11.00">Banners</text>
</g>
<!-- \\Model\\Banners&#45;&gt;\\Model\\Base -->
<g id="edge1" class="edge"><title>\\Model\\Banners&#45;&gt;\\Model\\Base</title>
<path fill="none" stroke="black" d="M213.955,-978.383C199.709,-974.45 183.475,-967.876 172,-957 108.605,-896.916 81.4674,-792.113 71.6928,-742.106"/>
<polygon fill="none" stroke="black" points="75.0866,-741.212 69.8141,-732.022 68.205,-742.494 75.0866,-741.212"/>
</g>
<!-- \\Model\\Blog -->
<g id="node17" class="node"><title>\\Model\\Blog</title>
<polygon fill="none" stroke="black" points="273,-948 219,-948 219,-912 273,-912 273,-948"/>
<text text-anchor="middle" x="246" y="-927.2" font-family="Courier,monospace" font-size="11.00">Blog</text>
</g>
<!-- \\Model\\Blog&#45;&gt;\\Model\\Base -->
<g id="edge2" class="edge"><title>\\Model\\Blog&#45;&gt;\\Model\\Base</title>
<path fill="none" stroke="black" d="M218.696,-925.037C203.664,-921.116 185.231,-914.349 172,-903 120.389,-858.731 89.2442,-782.477 75.4436,-741.671"/>
<polygon fill="none" stroke="black" points="78.7475,-740.513 72.3068,-732.101 72.0957,-742.694 78.7475,-740.513"/>
</g>
<!-- \\Model\\Users -->
<g id="node18" class="node"><title>\\Model\\Users</title>
<polygon fill="none" stroke="black" points="273,-894 219,-894 219,-858 273,-858 273,-894"/>
<text text-anchor="middle" x="246" y="-873.2" font-family="Courier,monospace" font-size="11.00">Users</text>
</g>
<!-- \\Model\\Users&#45;&gt;\\Model\\Base -->
<g id="edge4" class="edge"><title>\\Model\\Users&#45;&gt;\\Model\\Base</title>
<path fill="none" stroke="black" d="M218.967,-870.164C204.205,-865.968 185.955,-859.218 172,-849 132.052,-819.75 99.5963,-771.328 81.8215,-741.119"/>
<polygon fill="none" stroke="black" points="84.8073,-739.29 76.7845,-732.37 78.7408,-742.783 84.8073,-739.29"/>
</g>
<!-- \\Model\\RSS -->
<g id="node19" class="node"><title>\\Model\\RSS</title>
<polygon fill="none" stroke="black" points="273,-840 219,-840 219,-804 273,-804 273,-840"/>
<text text-anchor="middle" x="246" y="-819.2" font-family="Courier,monospace" font-size="11.00">RSS</text>
</g>
<!-- \\Model\\RSS&#45;&gt;\\Model\\Base -->
<g id="edge7" class="edge"><title>\\Model\\RSS&#45;&gt;\\Model\\Base</title>
<path fill="none" stroke="black" d="M218.825,-814.453C204.528,-809.811 186.777,-803.182 172,-795 143.55,-779.248 114.529,-756.219 94.2286,-738.739"/>
<polygon fill="none" stroke="black" points="96.4616,-736.042 86.627,-732.101 91.8574,-741.315 96.4616,-736.042"/>
</g>
<!-- \\Model\\Tickets -->
<g id="node20" class="node"><title>\\Model\\Tickets</title>
<polygon fill="none" stroke="black" points="278,-786 214,-786 214,-750 278,-750 278,-786"/>
<text text-anchor="middle" x="246" y="-765.2" font-family="Courier,monospace" font-size="11.00">Tickets</text>
</g>
<!-- \\Model\\Tickets&#45;&gt;\\Model\\Base -->
<g id="edge8" class="edge"><title>\\Model\\Tickets&#45;&gt;\\Model\\Base</title>
<path fill="none" stroke="black" d="M213.995,-758.594C187.57,-750.578 149.065,-738.896 118.093,-729.5"/>
<polygon fill="none" stroke="black" points="118.912,-726.091 108.326,-726.537 116.879,-732.79 118.912,-726.091"/>
</g>
<!-- \\Model\\Mailing -->
<g id="node21" class="node"><title>\\Model\\Mailing</title>
<polygon fill="none" stroke="black" points="278,-732 214,-732 214,-696 278,-696 278,-732"/>
<text text-anchor="middle" x="246" y="-711.2" font-family="Courier,monospace" font-size="11.00">Mailing</text>
</g>
<!-- \\Model\\Mailing&#45;&gt;\\Model\\Base -->
<g id="edge9" class="edge"><title>\\Model\\Mailing&#45;&gt;\\Model\\Base</title>
<path fill="none" stroke="black" d="M213.995,-714C187.685,-714 149.398,-714 118.495,-714"/>
<polygon fill="none" stroke="black" points="118.326,-710.5 108.326,-714 118.326,-717.5 118.326,-710.5"/>
</g>
<!-- \\Model\\BlogViews -->
<g id="node23" class="node"><title>\\Model\\BlogViews</title>
<polygon fill="none" stroke="black" points="284.5,-678 207.5,-678 207.5,-642 284.5,-642 284.5,-678"/>
<text text-anchor="middle" x="246" y="-657.2" font-family="Courier,monospace" font-size="11.00">BlogViews</text>
</g>
<!-- \\Model\\BlogViews&#45;&gt;\\Model\\Base -->
<g id="edge11" class="edge"><title>\\Model\\BlogViews&#45;&gt;\\Model\\Base</title>
<path fill="none" stroke="black" d="M207.251,-671.452C181.234,-679.345 146.353,-689.927 117.886,-698.563"/>
<polygon fill="none" stroke="black" points="116.662,-695.276 108.109,-701.529 118.695,-701.975 116.662,-695.276"/>
</g>
<!-- \\Model\\Comments -->
<g id="node24" class="node"><title>\\Model\\Comments</title>
<polygon fill="none" stroke="black" points="281.5,-624 210.5,-624 210.5,-588 281.5,-588 281.5,-624"/>
<text text-anchor="middle" x="246" y="-603.2" font-family="Courier,monospace" font-size="11.00">Comments</text>
</g>
<!-- \\Model\\Comments&#45;&gt;\\Model\\Base -->
<g id="edge12" class="edge"><title>\\Model\\Comments&#45;&gt;\\Model\\Base</title>
<path fill="none" stroke="black" d="M210.254,-616.438C197.821,-620.792 183.94,-626.389 172,-633 143.55,-648.752 114.529,-671.781 94.2286,-689.261"/>
<polygon fill="none" stroke="black" points="91.8574,-686.685 86.627,-695.899 96.4616,-691.958 91.8574,-686.685"/>
</g>
<!-- \\Model\\Tags -->
<g id="node25" class="node"><title>\\Model\\Tags</title>
<polygon fill="none" stroke="black" points="273,-570 219,-570 219,-534 273,-534 273,-570"/>
<text text-anchor="middle" x="246" y="-549.2" font-family="Courier,monospace" font-size="11.00">Tags</text>
</g>
<!-- \\Model\\Tags&#45;&gt;\\Model\\Base -->
<g id="edge13" class="edge"><title>\\Model\\Tags&#45;&gt;\\Model\\Base</title>
<path fill="none" stroke="black" d="M218.967,-557.836C204.205,-562.032 185.955,-568.782 172,-579 132.052,-608.25 99.5963,-656.672 81.8215,-686.881"/>
<polygon fill="none" stroke="black" points="78.7408,-685.217 76.7845,-695.63 84.8073,-688.71 78.7408,-685.217"/>
</g>
<!-- \\Model\\Categories -->
<g id="node26" class="node"><title>\\Model\\Categories</title>
<polygon fill="none" stroke="black" points="288,-516 204,-516 204,-480 288,-480 288,-516"/>
<text text-anchor="middle" x="246" y="-495.2" font-family="Courier,monospace" font-size="11.00">Categories</text>
</g>
<!-- \\Model\\Categories&#45;&gt;\\Model\\Base -->
<g id="edge14" class="edge"><title>\\Model\\Categories&#45;&gt;\\Model\\Base</title>
<path fill="none" stroke="black" d="M203.988,-507.483C192.733,-511.521 181.128,-517.17 172,-525 120.389,-569.269 89.2442,-645.523 75.4436,-686.329"/>
<polygon fill="none" stroke="black" points="72.0957,-685.306 72.3068,-695.899 78.7475,-687.487 72.0957,-685.306"/>
</g>
<!-- \\Model\\Administrators -->
<g id="node27" class="node"><title>\\Model\\Administrators</title>
<polygon fill="none" stroke="black" points="301.5,-462 190.5,-462 190.5,-426 301.5,-426 301.5,-462"/>
<text text-anchor="middle" x="246" y="-441.2" font-family="Courier,monospace" font-size="11.00">Administrators</text>
</g>
<!-- \\Model\\Administrators&#45;&gt;\\Model\\Base -->
<g id="edge15" class="edge"><title>\\Model\\Administrators&#45;&gt;\\Model\\Base</title>
<path fill="none" stroke="black" d="M190.266,-458.527C183.606,-461.877 177.296,-465.98 172,-471 108.605,-531.084 81.4674,-635.887 71.6928,-685.894"/>
<polygon fill="none" stroke="black" points="68.205,-685.506 69.8141,-695.978 75.0866,-686.788 68.205,-685.506"/>
</g>
<!-- \\Model\\Messages -->
<g id="node28" class="node"><title>\\Model\\Messages</title>
<polygon fill="none" stroke="black" points="281.5,-408 210.5,-408 210.5,-372 281.5,-372 281.5,-408"/>
<text text-anchor="middle" x="246" y="-387.2" font-family="Courier,monospace" font-size="11.00">Messages</text>
</g>
<!-- \\Model\\Messages&#45;&gt;\\Model\\Base -->
<g id="edge16" class="edge"><title>\\Model\\Messages&#45;&gt;\\Model\\Base</title>
<path fill="none" stroke="black" d="M210.287,-396.217C196.838,-400.177 182.245,-406.606 172,-417 96.62,-493.476 75.1028,-627.352 69.1679,-685.592"/>
<polygon fill="none" stroke="black" points="65.6527,-685.592 68.2044,-695.875 72.6222,-686.245 65.6527,-685.592"/>
</g>
<!-- \\Model\\TicketResponses -->
<g id="node29" class="node"><title>\\Model\\TicketResponses</title>
<polygon fill="none" stroke="black" points="305,-354 187,-354 187,-318 305,-318 305,-354"/>
<text text-anchor="middle" x="246" y="-333.2" font-family="Courier,monospace" font-size="11.00">TicketResponses</text>
</g>
<!-- \\Model\\TicketResponses&#45;&gt;\\Model\\Base -->
<g id="edge17" class="edge"><title>\\Model\\TicketResponses&#45;&gt;\\Model\\Base</title>
<path fill="none" stroke="black" d="M186.81,-351.548C181.335,-354.692 176.253,-358.467 172,-363 84.3646,-456.393 69.6289,-620.012 67.3311,-685.612"/>
<polygon fill="none" stroke="black" points="63.8222,-685.887 67.0455,-695.98 70.8196,-686.08 63.8222,-685.887"/>
</g>
<!-- \\Lib\\Connector -->
<g id="node30" class="node"><title>\\Lib\\Connector</title>
<polygon fill="none" stroke="black" points="284.5,-274 207.5,-274 207.5,-238 284.5,-238 284.5,-274"/>
<text text-anchor="middle" x="246" y="-253.2" font-family="Courier,monospace" font-size="11.00">Connector</text>
</g>
<!-- \\Lib\\Connector&#45;&gt;\\Model\\Base -->
<g id="edge3" class="edge"><title>\\Lib\\Connector&#45;&gt;\\Model\\Base</title>
<path fill="none" stroke="black" d="M208.049,-274.11C194.933,-282.21 181.166,-292.915 172,-306 86.358,-428.256 70.5332,-614.881 67.6369,-685.549"/>
<polygon fill="none" stroke="black" points="64.1277,-685.751 67.2744,-695.867 71.1234,-685.996 64.1277,-685.751"/>
</g>
<!-- \\Lib\\Data -->
<g id="node31" class="node"><title>\\Lib\\Data</title>
<polygon fill="none" stroke="black" points="288,-220 204,-220 204,-184 288,-184 288,-220"/>
<text text-anchor="start" x="212" y="-205.2" font-family="Courier,monospace" font-size="11.00">«abstract»</text>
<text text-anchor="start" x="232" y="-193.2" font-family="Courier,monospace" font-size="11.00">Data</text>
</g>
<!-- \\View\\View -->
<g id="node32" class="node"><title>\\View\\View</title>
<polygon fill="none" stroke="black" points="273,-140 219,-140 219,-104 273,-104 273,-140"/>
<text text-anchor="middle" x="246" y="-119.2" font-family="Courier,monospace" font-size="11.00">View</text>
</g>
<!-- \\Controller\\Controller -->
<g id="node33" class="node"><title>\\Controller\\Controller</title>
<polygon fill="none" stroke="black" points="288,-60 204,-60 204,-24 288,-24 288,-60"/>
<text text-anchor="middle" x="246" y="-39.2" font-family="Courier,monospace" font-size="11.00">Controller</text>
</g>
</g>
</svg>
