<?xml version="1.0" encoding="UTF-8" standalone="no"?>
<!DOCTYPE svg PUBLIC "-//W3C//DTD SVG 1.1//EN"
 "http://www.w3.org/Graphics/SVG/1.1/DTD/svg11.dtd">
<!-- Generated by graphviz version 2.36.0 (20140111.2315)
 -->
<!-- Title: G Pages: 1 -->
<svg width="306pt" height="1668pt"
 viewBox="0.00 0.00 306.00 1668.00" xmlns="http://www.w3.org/2000/svg" xmlns:xlink="http://www.w3.org/1999/xlink">
<g id="graph0" class="graph" transform="scale(1 1) rotate(0) translate(4 1664)">
<title>G</title>
<polygon fill="white" stroke="none" points="-4,4 -4,-1664 302,-1664 302,4 -4,4"/>
<g id="clust1" class="cluster"><title>cluster_Global</title>
<path fill="none" stroke="gray" d="M20,-8C20,-8 278,-8 278,-8 284,-8 290,-14 290,-20 290,-20 290,-1640 290,-1640 290,-1646 284,-1652 278,-1652 278,-1652 20,-1652 20,-1652 14,-1652 8,-1646 8,-1640 8,-1640 8,-20 8,-20 8,-14 14,-8 20,-8"/>
<text text-anchor="middle" x="149" y="-1639.2" font-family="Times,serif" font-size="11.00" fill="gray">Global</text>
</g>
<g id="clust2" class="cluster"><title>cluster_\Extensions</title>
<path fill="none" stroke="gray" d="M185,-1066C185,-1066 239,-1066 239,-1066 245,-1066 251,-1072 251,-1078 251,-1078 251,-1612 251,-1612 251,-1618 245,-1624 239,-1624 239,-1624 185,-1624 185,-1624 179,-1624 173,-1618 173,-1612 173,-1612 173,-1078 173,-1078 173,-1072 179,-1066 185,-1066"/>
<text text-anchor="middle" x="212" y="-1611.2" font-family="Times,serif" font-size="11.00" fill="gray">Extensions</text>
</g>
<g id="clust3" class="cluster"><title>cluster_\Model</title>
<path fill="none" stroke="gray" d="M28,-310C28,-310 270,-310 270,-310 276,-310 282,-316 282,-322 282,-322 282,-1046 282,-1046 282,-1052 276,-1058 270,-1058 270,-1058 28,-1058 28,-1058 22,-1058 16,-1052 16,-1046 16,-1046 16,-322 16,-322 16,-316 22,-310 28,-310"/>
<text text-anchor="middle" x="149" y="-1045.2" font-family="Times,serif" font-size="11.00" fill="gray">Model</text>
</g>
<g id="clust4" class="cluster"><title>cluster_\Model\PagSeguro</title>
<path fill="none" stroke="gray" d="M162,-850C162,-850 262,-850 262,-850 268,-850 274,-856 274,-862 274,-862 274,-1018 274,-1018 274,-1024 268,-1030 262,-1030 262,-1030 162,-1030 162,-1030 156,-1030 150,-1024 150,-1018 150,-1018 150,-862 150,-862 150,-856 156,-850 162,-850"/>
<text text-anchor="middle" x="212" y="-1017.2" font-family="Times,serif" font-size="11.00" fill="gray">PagSeguro</text>
</g>
<g id="clust5" class="cluster"><title>cluster_\Lib</title>
<path fill="none" stroke="gray" d="M185,-176C185,-176 239,-176 239,-176 245,-176 251,-182 251,-188 251,-188 251,-290 251,-290 251,-296 245,-302 239,-302 239,-302 185,-302 185,-302 179,-302 173,-296 173,-290 173,-290 173,-188 173,-188 173,-182 179,-176 185,-176"/>
<text text-anchor="middle" x="212" y="-289.2" font-family="Times,serif" font-size="11.00" fill="gray">Lib</text>
</g>
<g id="clust6" class="cluster"><title>cluster_\View</title>
<path fill="none" stroke="gray" d="M189,-96C189,-96 235,-96 235,-96 241,-96 247,-102 247,-108 247,-108 247,-156 247,-156 247,-162 241,-168 235,-168 235,-168 189,-168 189,-168 183,-168 177,-162 177,-156 177,-156 177,-108 177,-108 177,-102 183,-96 189,-96"/>
<text text-anchor="middle" x="212" y="-155.2" font-family="Times,serif" font-size="11.00" fill="gray">View</text>
</g>
<g id="clust7" class="cluster"><title>cluster_\Controller</title>
<path fill="none" stroke="gray" d="M185,-16C185,-16 239,-16 239,-16 245,-16 251,-22 251,-28 251,-28 251,-76 251,-76 251,-82 245,-88 239,-88 239,-88 185,-88 185,-88 179,-88 173,-82 173,-76 173,-76 173,-28 173,-28 173,-22 179,-16 185,-16"/>
<text text-anchor="middle" x="212" y="-75.2" font-family="Times,serif" font-size="11.00" fill="gray">Controller</text>
</g>
<!-- \\Extensions\\Files -->
<g id="node1" class="node"><title>\\Extensions\\Files</title>
<polygon fill="none" stroke="black" points="239,-1596 185,-1596 185,-1560 239,-1560 239,-1596"/>
<text text-anchor="middle" x="212" y="-1575.2" font-family="Times,serif" font-size="11.00">Files</text>
</g>
<!-- \\Extensions\\Config -->
<g id="node2" class="node"><title>\\Extensions\\Config</title>
<polygon fill="none" stroke="black" points="239,-1542 185,-1542 185,-1506 239,-1506 239,-1542"/>
<text text-anchor="middle" x="212" y="-1521.2" font-family="Times,serif" font-size="11.00">Config</text>
</g>
<!-- \\Extensions\\Strings -->
<g id="node3" class="node"><title>\\Extensions\\Strings</title>
<polygon fill="none" stroke="black" points="239,-1488 185,-1488 185,-1452 239,-1452 239,-1488"/>
<text text-anchor="middle" x="212" y="-1467.2" font-family="Times,serif" font-size="11.00">Strings</text>
</g>
<!-- \\Extensions\\Messages -->
<g id="node4" class="node"><title>\\Extensions\\Messages</title>
<polygon fill="none" stroke="black" points="242.5,-1434 181.5,-1434 181.5,-1398 242.5,-1398 242.5,-1434"/>
<text text-anchor="middle" x="212" y="-1413.2" font-family="Times,serif" font-size="11.00">Messages</text>
</g>
<!-- \\Extensions\\Geo -->
<g id="node5" class="node"><title>\\Extensions\\Geo</title>
<polygon fill="none" stroke="black" points="239,-1380 185,-1380 185,-1344 239,-1344 239,-1380"/>
<text text-anchor="middle" x="212" y="-1359.2" font-family="Times,serif" font-size="11.00">Geo</text>
</g>
<!-- \\Extensions\\CEP -->
<g id="node6" class="node"><title>\\Extensions\\CEP</title>
<polygon fill="none" stroke="black" points="239,-1326 185,-1326 185,-1290 239,-1290 239,-1326"/>
<text text-anchor="middle" x="212" y="-1305.2" font-family="Times,serif" font-size="11.00">CEP</text>
</g>
<!-- \\Extensions\\Gravatar -->
<g id="node7" class="node"><title>\\Extensions\\Gravatar</title>
<polygon fill="none" stroke="black" points="240,-1272 184,-1272 184,-1236 240,-1236 240,-1272"/>
<text text-anchor="middle" x="212" y="-1251.2" font-family="Times,serif" font-size="11.00">Gravatar</text>
</g>
<!-- \\Extensions\\Mailer -->
<g id="node8" class="node"><title>\\Extensions\\Mailer</title>
<polygon fill="none" stroke="black" points="239,-1218 185,-1218 185,-1182 239,-1182 239,-1218"/>
<text text-anchor="middle" x="212" y="-1197.2" font-family="Times,serif" font-size="11.00">Mailer</text>
</g>
<!-- \\Extensions\\Weather -->
<g id="node9" class="node"><title>\\Extensions\\Weather</title>
<polygon fill="none" stroke="black" points="239.5,-1164 184.5,-1164 184.5,-1128 239.5,-1128 239.5,-1164"/>
<text text-anchor="middle" x="212" y="-1143.2" font-family="Times,serif" font-size="11.00">Weather</text>
</g>
<!-- \\Extensions\\Security -->
<g id="node10" class="node"><title>\\Extensions\\Security</title>
<polygon fill="none" stroke="black" points="239,-1110 185,-1110 185,-1074 239,-1074 239,-1110"/>
<text text-anchor="middle" x="212" y="-1089.2" font-family="Times,serif" font-size="11.00">Security</text>
</g>
<!-- \\Model\\PagSeguro\\PagSeguroOrder -->
<g id="node11" class="node"><title>\\Model\\PagSeguro\\PagSeguroOrder</title>
<polygon fill="none" stroke="black" points="257,-1002 167,-1002 167,-966 257,-966 257,-1002"/>
<text text-anchor="middle" x="212" y="-981.2" font-family="Times,serif" font-size="11.00">PagSeguroOrder</text>
</g>
<!-- \\Model\\Base -->
<g id="node18" class="node"><title>\\Model\\Base</title>
<polygon fill="none" stroke="black" points="86,-651 24,-651 24,-615 86,-615 86,-651"/>
<text text-anchor="start" x="32" y="-636.2" font-family="Times,serif" font-size="11.00">«abstract»</text>
<text text-anchor="start" x="43.5" y="-624.2" font-family="Times,serif" font-size="11.00">Base</text>
</g>
<!-- \\Model\\PagSeguro\\PagSeguroOrder&#45;&gt;\\Model\\Base -->
<g id="edge5" class="edge"><title>\\Model\\PagSeguro\\PagSeguroOrder&#45;&gt;\\Model\\Base</title>
<path fill="none" stroke="black" d="M166.832,-970.128C160.546,-966.637 154.649,-962.319 150,-957 73.4645,-869.425 59.1053,-722.762 56.5144,-661.373"/>
<polygon fill="none" stroke="black" points="60.0086,-661.142 56.1641,-651.269 53.0128,-661.384 60.0086,-661.142"/>
</g>
<!-- \\Model\\PagSeguro\\PagSeguroCustomer -->
<g id="node12" class="node"><title>\\Model\\PagSeguro\\PagSeguroCustomer</title>
<polygon fill="none" stroke="black" points="265.5,-948 158.5,-948 158.5,-912 265.5,-912 265.5,-948"/>
<text text-anchor="middle" x="212" y="-927.2" font-family="Times,serif" font-size="11.00">PagSeguroCustomer</text>
</g>
<!-- \\Model\\PagSeguro\\PagSeguroCustomer&#45;&gt;\\Model\\Base -->
<g id="edge6" class="edge"><title>\\Model\\PagSeguro\\PagSeguroCustomer&#45;&gt;\\Model\\Base</title>
<path fill="none" stroke="black" d="M160.413,-911.849C156.605,-909.258 153.061,-906.322 150,-903 85.1782,-832.655 64.6813,-715.204 58.509,-661.44"/>
<polygon fill="none" stroke="black" points="61.9655,-660.845 57.4274,-651.271 55.0047,-661.585 61.9655,-660.845"/>
</g>
<!-- \\Model\\PagSeguro\\PagSeguroConfig -->
<g id="node13" class="node"><title>\\Model\\PagSeguro\\PagSeguroConfig</title>
<polygon fill="none" stroke="black" points="259,-894 165,-894 165,-858 259,-858 259,-894"/>
<text text-anchor="middle" x="212" y="-873.2" font-family="Times,serif" font-size="11.00">PagSeguroConfig</text>
</g>
<!-- \\Model\\PagSeguro\\PagSeguroConfig&#45;&gt;\\Model\\Base -->
<g id="edge8" class="edge"><title>\\Model\\PagSeguro\\PagSeguroConfig&#45;&gt;\\Model\\Base</title>
<path fill="none" stroke="black" d="M164.94,-864.171C159.491,-861.444 154.336,-858.099 150,-854 93.5045,-800.584 69.438,-707.726 60.5328,-661.228"/>
<polygon fill="none" stroke="black" points="63.9507,-660.46 58.7197,-651.247 57.0634,-661.711 63.9507,-660.46"/>
</g>
<!-- \\Model\\Banners -->
<g id="node14" class="node"><title>\\Model\\Banners</title>
<polygon fill="none" stroke="black" points="239,-840 185,-840 185,-804 239,-804 239,-840"/>
<text text-anchor="middle" x="212" y="-819.2" font-family="Times,serif" font-size="11.00">Banners</text>
</g>
<!-- \\Model\\Banners&#45;&gt;\\Model\\Base -->
<g id="edge1" class="edge"><title>\\Model\\Banners&#45;&gt;\\Model\\Base</title>
<path fill="none" stroke="black" d="M184.895,-814.541C173.234,-810.242 159.917,-803.89 150,-795 107.91,-757.267 79.6377,-696.078 65.8257,-660.689"/>
<polygon fill="none" stroke="black" points="68.9747,-659.121 62.1588,-651.01 62.4288,-661.601 68.9747,-659.121"/>
</g>
<!-- \\Model\\Blog -->
<g id="node15" class="node"><title>\\Model\\Blog</title>
<polygon fill="none" stroke="black" points="239,-786 185,-786 185,-750 239,-750 239,-786"/>
<text text-anchor="middle" x="212" y="-765.2" font-family="Times,serif" font-size="11.00">Blog</text>
</g>
<!-- \\Model\\Blog&#45;&gt;\\Model\\Base -->
<g id="edge2" class="edge"><title>\\Model\\Blog&#45;&gt;\\Model\\Base</title>
<path fill="none" stroke="black" d="M184.719,-759.292C173.418,-754.831 160.438,-748.701 150,-741 119.003,-718.13 91.0877,-683.373 73.8823,-659.5"/>
<polygon fill="none" stroke="black" points="76.673,-657.385 68.0421,-651.24 70.9572,-661.426 76.673,-657.385"/>
</g>
<!-- \\Model\\Users -->
<g id="node16" class="node"><title>\\Model\\Users</title>
<polygon fill="none" stroke="black" points="239,-732 185,-732 185,-696 239,-696 239,-732"/>
<text text-anchor="middle" x="212" y="-711.2" font-family="Times,serif" font-size="11.00">Users</text>
</g>
<!-- \\Model\\Users&#45;&gt;\\Model\\Base -->
<g id="edge4" class="edge"><title>\\Model\\Users&#45;&gt;\\Model\\Base</title>
<path fill="none" stroke="black" d="M184.897,-703.161C173.99,-698.448 161.26,-692.707 150,-687 131.444,-677.596 111.388,-666.246 94.5871,-656.383"/>
<polygon fill="none" stroke="black" points="96.0071,-653.157 85.6181,-651.079 92.4438,-659.182 96.0071,-653.157"/>
</g>
<!-- \\Model\\Mailing -->
<g id="node17" class="node"><title>\\Model\\Mailing</title>
<polygon fill="none" stroke="black" points="239,-678 185,-678 185,-642 239,-642 239,-678"/>
<text text-anchor="middle" x="212" y="-657.2" font-family="Times,serif" font-size="11.00">Mailing</text>
</g>
<!-- \\Model\\Mailing&#45;&gt;\\Model\\Base -->
<g id="edge7" class="edge"><title>\\Model\\Mailing&#45;&gt;\\Model\\Base</title>
<path fill="none" stroke="black" d="M184.706,-655.42C160.398,-651.185 123.925,-644.832 96.005,-639.969"/>
<polygon fill="none" stroke="black" points="96.5964,-636.519 86.1441,-638.251 95.3951,-643.415 96.5964,-636.519"/>
</g>
<!-- \\Model\\BlogViews -->
<g id="node19" class="node"><title>\\Model\\BlogViews</title>
<polygon fill="none" stroke="black" points="245.5,-624 178.5,-624 178.5,-588 245.5,-588 245.5,-624"/>
<text text-anchor="middle" x="212" y="-603.2" font-family="Times,serif" font-size="11.00">BlogViews</text>
</g>
<!-- \\Model\\BlogViews&#45;&gt;\\Model\\Base -->
<g id="edge9" class="edge"><title>\\Model\\BlogViews&#45;&gt;\\Model\\Base</title>
<path fill="none" stroke="black" d="M178.128,-611.726C154.229,-615.889 121.739,-621.549 96.2785,-625.984"/>
<polygon fill="none" stroke="black" points="95.4469,-622.576 86.1959,-627.74 96.6482,-629.472 95.4469,-622.576"/>
</g>
<!-- \\Model\\Comments -->
<g id="node20" class="node"><title>\\Model\\Comments</title>
<polygon fill="none" stroke="black" points="244,-570 180,-570 180,-534 244,-534 244,-570"/>
<text text-anchor="middle" x="212" y="-549.2" font-family="Times,serif" font-size="11.00">Comments</text>
</g>
<!-- \\Model\\Comments&#45;&gt;\\Model\\Base -->
<g id="edge10" class="edge"><title>\\Model\\Comments&#45;&gt;\\Model\\Base</title>
<path fill="none" stroke="black" d="M179.987,-564.977C170.285,-569.236 159.607,-574.131 150,-579 131.444,-588.404 111.388,-599.754 94.5871,-609.617"/>
<polygon fill="none" stroke="black" points="92.4438,-606.818 85.6181,-614.921 96.0071,-612.843 92.4438,-606.818"/>
</g>
<!-- \\Model\\Tags -->
<g id="node21" class="node"><title>\\Model\\Tags</title>
<polygon fill="none" stroke="black" points="239,-516 185,-516 185,-480 239,-480 239,-516"/>
<text text-anchor="middle" x="212" y="-495.2" font-family="Times,serif" font-size="11.00">Tags</text>
</g>
<!-- \\Model\\Tags&#45;&gt;\\Model\\Base -->
<g id="edge11" class="edge"><title>\\Model\\Tags&#45;&gt;\\Model\\Base</title>
<path fill="none" stroke="black" d="M184.719,-506.708C173.418,-511.169 160.438,-517.299 150,-525 119.003,-547.87 91.0877,-582.627 73.8823,-606.5"/>
<polygon fill="none" stroke="black" points="70.9572,-604.574 68.0421,-614.76 76.673,-608.615 70.9572,-604.574"/>
</g>
<!-- \\Model\\Categories -->
<g id="node22" class="node"><title>\\Model\\Categories</title>
<polygon fill="none" stroke="black" points="244.5,-462 179.5,-462 179.5,-426 244.5,-426 244.5,-462"/>
<text text-anchor="middle" x="212" y="-441.2" font-family="Times,serif" font-size="11.00">Categories</text>
</g>
<!-- \\Model\\Categories&#45;&gt;\\Model\\Base -->
<g id="edge12" class="edge"><title>\\Model\\Categories&#45;&gt;\\Model\\Base</title>
<path fill="none" stroke="black" d="M179.317,-453.63C169.148,-457.809 158.365,-463.501 150,-471 107.91,-508.733 79.6377,-569.922 65.8257,-605.311"/>
<polygon fill="none" stroke="black" points="62.4288,-604.399 62.1588,-614.99 68.9747,-606.879 62.4288,-604.399"/>
</g>
<!-- \\Model\\Administrators -->
<g id="node23" class="node"><title>\\Model\\Administrators</title>
<polygon fill="none" stroke="black" points="253.5,-408 170.5,-408 170.5,-372 253.5,-372 253.5,-408"/>
<text text-anchor="middle" x="212" y="-387.2" font-family="Times,serif" font-size="11.00">Administrators</text>
</g>
<!-- \\Model\\Administrators&#45;&gt;\\Model\\Base -->
<g id="edge13" class="edge"><title>\\Model\\Administrators&#45;&gt;\\Model\\Base</title>
<path fill="none" stroke="black" d="M170.238,-402.941C162.865,-406.625 155.715,-411.25 150,-417 96.6226,-470.711 71.2846,-559.72 61.3486,-604.87"/>
<polygon fill="none" stroke="black" points="57.8844,-604.336 59.2494,-614.843 64.7343,-605.778 57.8844,-604.336"/>
</g>
<!-- \\Model\\Messages -->
<g id="node24" class="node"><title>\\Model\\Messages</title>
<polygon fill="none" stroke="black" points="242.5,-354 181.5,-354 181.5,-318 242.5,-318 242.5,-354"/>
<text text-anchor="middle" x="212" y="-333.2" font-family="Times,serif" font-size="11.00">Messages</text>
</g>
<!-- \\Model\\Messages&#45;&gt;\\Model\\Base -->
<g id="edge14" class="edge"><title>\\Model\\Messages&#45;&gt;\\Model\\Base</title>
<path fill="none" stroke="black" d="M181.282,-343.648C170.207,-347.792 158.319,-353.972 150,-363 85.1782,-433.345 64.6813,-550.796 58.509,-604.56"/>
<polygon fill="none" stroke="black" points="55.0047,-604.415 57.4274,-614.729 61.9655,-605.155 55.0047,-604.415"/>
</g>
<!-- \\Lib\\Connector -->
<g id="node25" class="node"><title>\\Lib\\Connector</title>
<polygon fill="none" stroke="black" points="243,-274 181,-274 181,-238 243,-238 243,-274"/>
<text text-anchor="middle" x="212" y="-253.2" font-family="Times,serif" font-size="11.00">Connector</text>
</g>
<!-- \\Lib\\Connector&#45;&gt;\\Model\\Base -->
<g id="edge3" class="edge"><title>\\Lib\\Connector&#45;&gt;\\Model\\Base</title>
<path fill="none" stroke="black" d="M181.875,-274.192C170.482,-282.617 158.205,-293.532 150,-306 85.9559,-403.317 64.8003,-544.771 58.4619,-604.594"/>
<polygon fill="none" stroke="black" points="54.9553,-604.487 57.4438,-614.785 61.9206,-605.182 54.9553,-604.487"/>
</g>
<!-- \\Lib\\Data -->
<g id="node26" class="node"><title>\\Lib\\Data</title>
<polygon fill="none" stroke="black" points="243,-220 181,-220 181,-184 243,-184 243,-220"/>
<text text-anchor="start" x="189" y="-205.2" font-family="Times,serif" font-size="11.00">«abstract»</text>
<text text-anchor="start" x="201" y="-193.2" font-family="Times,serif" font-size="11.00">Data</text>
</g>
<!-- \\View\\View -->
<g id="node27" class="node"><title>\\View\\View</title>
<polygon fill="none" stroke="black" points="239,-140 185,-140 185,-104 239,-104 239,-140"/>
<text text-anchor="middle" x="212" y="-119.2" font-family="Times,serif" font-size="11.00">View</text>
</g>
<!-- \\Controller\\Controller -->
<g id="node28" class="node"><title>\\Controller\\Controller</title>
<polygon fill="none" stroke="black" points="243,-60 181,-60 181,-24 243,-24 243,-60"/>
<text text-anchor="middle" x="212" y="-39.2" font-family="Times,serif" font-size="11.00">Controller</text>
</g>
</g>
</svg>
